<?xml version="1.0" encoding="UTF-8" standalone="no"?>
<!-- Created with Inkscape (http://www.inkscape.org/) -->

<svg
   xmlns:dc="http://purl.org/dc/elements/1.1/"
   xmlns:cc="http://creativecommons.org/ns#"
   xmlns:rdf="http://www.w3.org/1999/02/22-rdf-syntax-ns#"
   xmlns:svg="http://www.w3.org/2000/svg"
   xmlns="http://www.w3.org/2000/svg"
   xmlns:xlink="http://www.w3.org/1999/xlink"
   xmlns:sodipodi="http://sodipodi.sourceforge.net/DTD/sodipodi-0.dtd"
   xmlns:inkscape="http://www.inkscape.org/namespaces/inkscape"
   width="210mm"
   height="297mm"
   viewBox="0 0 744.09448819 1052.3622047"
   id="svg3499"
   version="1.1"
   inkscape:version="0.91 r13725"
   sodipodi:docname="drawing-1.svg">
  <defs
     id="defs3501">
    <linearGradient
       inkscape:collect="always"
       xlink:href="#linearGradient4247"
       id="linearGradient4263"
       x1="196.02065"
       y1="-943.92584"
       x2="1012.2196"
       y2="-943.92584"
       gradientUnits="userSpaceOnUse" />
    <linearGradient
       inkscape:collect="always"
       id="linearGradient4247">
      <stop
         style="stop-color:#000000;stop-opacity:1;"
         offset="0"
         id="stop4249" />
      <stop
         style="stop-color:#000000;stop-opacity:0;"
         offset="1"
         id="stop4251" />
    </linearGradient>
    <pattern
       inkscape:stockid="Wavy"
       id="Wavy"
       height="5.1805778"
       width="30.066020"
       patternUnits="userSpaceOnUse"
       inkscape:collect="always"
       inkscape:isstock="true">
      <path
         id="path6064"
         d="M 7.597,0.061 C 5.079,-0.187 2.656,0.302 -0.01,1.788 L -0.01,3.061 C 2.773,1.431 5.173,1.052 7.472,1.280 C 9.770,1.508 11.969,2.361 14.253,3.218 C 18.820,4.931 23.804,6.676 30.066,3.061 L 30.062,1.788 C 23.622,5.497 19.246,3.770 14.691,2.061 C 12.413,1.207 10.115,0.311 7.597,0.061 z "
         style="fill:black;stroke:none;" />
    </pattern>
    <pattern
       inkscape:stockid="Polka dots, large white"
       id="Polkadots-largewhite"
       patternTransform="translate(0,0) scale(10,10)"
       height="10"
       width="10"
       patternUnits="userSpaceOnUse"
       inkscape:collect="always">
      <circle
         id="circle5975"
         r="0.45"
         cy="0.810"
         cx="2.567"
         style="fill:white;stroke:none" />
      <circle
         id="circle5977"
         r="0.45"
         cy="2.33"
         cx="3.048"
         style="fill:white;stroke:none" />
      <circle
         id="circle5979"
         r="0.45"
         cy="2.415"
         cx="4.418"
         style="fill:white;stroke:none" />
      <circle
         id="circle5981"
         r="0.45"
         cy="3.029"
         cx="1.844"
         style="fill:white;stroke:none" />
      <circle
         id="circle5983"
         r="0.45"
         cy="1.363"
         cx="6.08"
         style="fill:white;stroke:none" />
      <circle
         id="circle5985"
         r="0.45"
         cy="4.413"
         cx="5.819"
         style="fill:white;stroke:none" />
      <circle
         id="circle5987"
         r="0.45"
         cy="4.048"
         cx="4.305"
         style="fill:white;stroke:none" />
      <circle
         id="circle5989"
         r="0.45"
         cy="3.045"
         cx="5.541"
         style="fill:white;stroke:none" />
      <circle
         id="circle5991"
         r="0.45"
         cy="5.527"
         cx="4.785"
         style="fill:white;stroke:none" />
      <circle
         id="circle5993"
         r="0.45"
         cy="5.184"
         cx="2.667"
         style="fill:white;stroke:none" />
      <circle
         id="circle5995"
         r="0.45"
         cy="1.448"
         cx="7.965"
         style="fill:white;stroke:none" />
      <circle
         id="circle5997"
         r="0.45"
         cy="5.049"
         cx="7.047"
         style="fill:white;stroke:none" />
      <circle
         id="circle5999"
         r="0.45"
         cy="0.895"
         cx="4.340"
         style="fill:white;stroke:none" />
      <circle
         id="circle6001"
         r="0.45"
         cy="0.340"
         cx="7.125"
         style="fill:white;stroke:none" />
      <circle
         id="circle6003"
         r="0.45"
         cy="1.049"
         cx="9.553"
         style="fill:white;stroke:none" />
      <circle
         id="circle6005"
         r="0.45"
         cy="2.689"
         cx="7.006"
         style="fill:white;stroke:none" />
      <circle
         id="circle6007"
         r="0.45"
         cy="2.689"
         cx="8.909"
         style="fill:white;stroke:none" />
      <circle
         id="circle6009"
         r="0.45"
         cy="4.407"
         cx="9.315"
         style="fill:white;stroke:none" />
      <circle
         id="circle6011"
         r="0.45"
         cy="3.870"
         cx="7.820"
         style="fill:white;stroke:none" />
      <circle
         id="circle6013"
         r="0.45"
         cy="5.948"
         cx="8.270"
         style="fill:white;stroke:none" />
      <circle
         id="circle6015"
         r="0.45"
         cy="7.428"
         cx="7.973"
         style="fill:white;stroke:none" />
      <circle
         id="circle6017"
         r="0.45"
         cy="8.072"
         cx="9.342"
         style="fill:white;stroke:none" />
      <circle
         id="circle6019"
         r="0.45"
         cy="9.315"
         cx="8.206"
         style="fill:white;stroke:none" />
      <circle
         id="circle6021"
         r="0.45"
         cy="9.475"
         cx="9.682"
         style="fill:white;stroke:none" />
      <circle
         id="circle6023"
         r="0.45"
         cy="6.186"
         cx="9.688"
         style="fill:white;stroke:none" />
      <circle
         id="circle6025"
         r="0.45"
         cy="6.296"
         cx="3.379"
         style="fill:white;stroke:none" />
      <circle
         id="circle6027"
         r="0.45"
         cy="8.204"
         cx="2.871"
         style="fill:white;stroke:none" />
      <circle
         id="circle6029"
         r="0.45"
         cy="8.719"
         cx="4.59"
         style="fill:white;stroke:none" />
      <circle
         id="circle6031"
         r="0.45"
         cy="9.671"
         cx="3.181"
         style="fill:white;stroke:none" />
      <circle
         id="circle6033"
         r="0.45"
         cy="7.315"
         cx="5.734"
         style="fill:white;stroke:none" />
      <circle
         id="circle6035"
         r="0.45"
         cy="6.513"
         cx="6.707"
         style="fill:white;stroke:none" />
      <circle
         id="circle6037"
         r="0.45"
         cy="9.670"
         cx="5.730"
         style="fill:white;stroke:none" />
      <circle
         id="circle6039"
         r="0.45"
         cy="8.373"
         cx="6.535"
         style="fill:white;stroke:none" />
      <circle
         id="circle6041"
         r="0.45"
         cy="7.154"
         cx="4.37"
         style="fill:white;stroke:none" />
      <circle
         id="circle6043"
         r="0.45"
         cy="7.25"
         cx="0.622"
         style="fill:white;stroke:none" />
      <circle
         id="circle6045"
         r="0.45"
         cy="5.679"
         cx="0.831"
         style="fill:white;stroke:none" />
      <circle
         id="circle6047"
         r="0.45"
         cy="8.519"
         cx="1.257"
         style="fill:white;stroke:none" />
      <circle
         id="circle6049"
         r="0.45"
         cy="6.877"
         cx="1.989"
         style="fill:white;stroke:none" />
      <circle
         id="circle6051"
         r="0.45"
         cy="3.181"
         cx="0.374"
         style="fill:white;stroke:none" />
      <circle
         id="circle6053"
         r="0.45"
         cy="1.664"
         cx="1.166"
         style="fill:white;stroke:none" />
      <circle
         id="circle6055"
         r="0.45"
         cy="0.093"
         cx="1.151"
         style="fill:white;stroke:none" />
      <circle
         id="circle6057"
         r="0.45"
         cy="10.093"
         cx="1.151"
         style="fill:white;stroke:none" />
      <circle
         id="circle6059"
         r="0.45"
         cy="4.451"
         cx="1.302"
         style="fill:white;stroke:none" />
      <circle
         id="circle6061"
         r="0.45"
         cy="3.763"
         cx="3.047"
         style="fill:white;stroke:none" />
    </pattern>
    <linearGradient
       inkscape:collect="always"
       xlink:href="#linearGradient4247"
       id="linearGradient3943"
       gradientUnits="userSpaceOnUse"
       x1="196.02065"
       y1="-943.92584"
       x2="1012.2196"
       y2="-943.92584" />
    <linearGradient
       inkscape:collect="always"
       xlink:href="#linearGradient4247"
       id="linearGradient3945"
       gradientUnits="userSpaceOnUse"
       x1="196.02065"
       y1="-943.92584"
       x2="1012.2196"
       y2="-943.92584" />
    <linearGradient
       inkscape:collect="always"
       xlink:href="#linearGradient4247"
       id="linearGradient3947"
       gradientUnits="userSpaceOnUse"
       x1="196.02065"
       y1="-943.92584"
       x2="1012.2196"
       y2="-943.92584" />
    <linearGradient
       inkscape:collect="always"
       xlink:href="#linearGradient4247"
       id="linearGradient3949"
       gradientUnits="userSpaceOnUse"
       x1="196.02065"
       y1="-943.92584"
       x2="1012.2196"
       y2="-943.92584" />
    <linearGradient
       inkscape:collect="always"
       xlink:href="#linearGradient4247"
       id="linearGradient3951"
       gradientUnits="userSpaceOnUse"
       x1="196.02065"
       y1="-943.92584"
       x2="1012.2196"
       y2="-943.92584" />
    <linearGradient
       inkscape:collect="always"
       xlink:href="#linearGradient4247"
       id="linearGradient3953"
       gradientUnits="userSpaceOnUse"
       x1="196.02065"
       y1="-943.92584"
       x2="1012.2196"
       y2="-943.92584" />
    <linearGradient
       inkscape:collect="always"
       xlink:href="#linearGradient4247"
       id="linearGradient3955"
       gradientUnits="userSpaceOnUse"
       x1="196.02065"
       y1="-943.92584"
       x2="1012.2196"
       y2="-943.92584" />
    <linearGradient
       inkscape:collect="always"
       xlink:href="#linearGradient4247"
       id="linearGradient3957"
       gradientUnits="userSpaceOnUse"
       x1="196.02065"
       y1="-943.92584"
       x2="1012.2196"
       y2="-943.92584" />
    <linearGradient
       inkscape:collect="always"
       xlink:href="#linearGradient4247"
       id="linearGradient3959"
       gradientUnits="userSpaceOnUse"
       x1="196.02065"
       y1="-943.92584"
       x2="1012.2196"
       y2="-943.92584" />
    <linearGradient
       inkscape:collect="always"
       xlink:href="#linearGradient4247"
       id="linearGradient3961"
       gradientUnits="userSpaceOnUse"
       x1="196.02065"
       y1="-943.92584"
       x2="1012.2196"
       y2="-943.92584" />
    <linearGradient
       inkscape:collect="always"
       xlink:href="#linearGradient4247"
       id="linearGradient3963"
       gradientUnits="userSpaceOnUse"
       x1="196.02065"
       y1="-943.92584"
       x2="1012.2196"
       y2="-943.92584" />
    <linearGradient
       inkscape:collect="always"
       xlink:href="#linearGradient4247"
       id="linearGradient3965"
       gradientUnits="userSpaceOnUse"
       x1="196.02065"
       y1="-943.92584"
       x2="1012.2196"
       y2="-943.92584" />
    <linearGradient
       inkscape:collect="always"
       xlink:href="#linearGradient4247"
       id="linearGradient3967"
       gradientUnits="userSpaceOnUse"
       x1="196.02065"
       y1="-943.92584"
       x2="1012.2196"
       y2="-943.92584" />
    <linearGradient
       inkscape:collect="always"
       xlink:href="#linearGradient4247"
       id="linearGradient3969"
       gradientUnits="userSpaceOnUse"
       x1="196.02065"
       y1="-943.92584"
       x2="1012.2196"
       y2="-943.92584" />
    <linearGradient
       inkscape:collect="always"
       xlink:href="#linearGradient4247"
       id="linearGradient3971"
       gradientUnits="userSpaceOnUse"
       x1="196.02065"
       y1="-943.92584"
       x2="1012.2196"
       y2="-943.92584" />
    <linearGradient
       inkscape:collect="always"
       xlink:href="#linearGradient4247"
       id="linearGradient3973"
       gradientUnits="userSpaceOnUse"
       x1="196.02065"
       y1="-943.92584"
       x2="1012.2196"
       y2="-943.92584" />
    <linearGradient
       inkscape:collect="always"
       xlink:href="#linearGradient4247"
       id="linearGradient3975"
       gradientUnits="userSpaceOnUse"
       x1="196.02065"
       y1="-943.92584"
       x2="1012.2196"
       y2="-943.92584" />
  </defs>
  <sodipodi:namedview
     id="base"
     pagecolor="#ffffff"
     bordercolor="#666666"
     borderopacity="1.0"
     inkscape:pageopacity="0.0"
     inkscape:pageshadow="2"
     inkscape:zoom="0.35"
     inkscape:cx="515.00542"
     inkscape:cy="562.81935"
     inkscape:document-units="px"
     inkscape:current-layer="layer1"
     showgrid="false"
     inkscape:window-width="1024"
     inkscape:window-height="705"
     inkscape:window-x="-8"
     inkscape:window-y="-8"
     inkscape:window-maximized="1" />
  <metadata
     id="metadata3504">
    <rdf:RDF>
      <cc:Work
         rdf:about="">
        <dc:format>image/svg+xml</dc:format>
        <dc:type
           rdf:resource="http://purl.org/dc/dcmitype/StillImage" />
        <dc:title />
      </cc:Work>
    </rdf:RDF>
  </metadata>
  <g
     inkscape:label="Layer 1"
     inkscape:groupmode="layer"
     id="layer1">
    <g
       id="g7290"
       transform="matrix(0.35303053,0,0,0.60156073,66.477728,1339.262)">
      <g
         style="fill:url(#linearGradient3953);fill-opacity:1;stroke:url(#Wavy)"
         id="g7115"
         transform="matrix(0.00848784,0.78755215,-0.99966913,0.03792278,526.37992,-1774.3082)"
         inkscape:transform-center-x="53.157133"
         inkscape:transform-center-y="6.7331537">
        <g
           style="fill:url(#linearGradient3943);fill-opacity:1;stroke:url(#Wavy)"
           id="g7117" />
        <g
           id="g7119"
           inkscape:transform-center-x="-12.121835"
           inkscape:transform-center-y="0.000117259"
           style="opacity:1;fill:url(#linearGradient3951);fill-opacity:1;stroke:url(#Wavy);stroke-width:95.66929626;stroke-miterlimit:4;stroke-dasharray:none">
          <rect
             transform="matrix(0.01623387,0.99986822,-0.99986822,0.01623387,5.2140899e-7,-2.9995471e-5)"
             style="fill:url(#linearGradient3945);fill-opacity:1;stroke:url(#Wavy);stroke-width:95.66929626;stroke-miterlimit:4;stroke-dasharray:none"
             id="rect7121"
             width="36.36549"
             height="759.6347"
             x="-952.08234"
             y="-1011.2516" />
          <ellipse
             ry="28.284271"
             rx="18.182747"
             cy="-239.49509"
             cx="-933.89954"
             id="ellipse7123"
             style="fill:url(#linearGradient3947);fill-opacity:1;stroke:url(#Wavy);stroke-width:95.66929626;stroke-miterlimit:4;stroke-dasharray:none"
             transform="matrix(0.01623387,0.99986822,-0.99986822,0.01623387,0,0)" />
          <ellipse
             transform="matrix(0.01623387,0.99986822,-0.99986822,0.01623387,0,0)"
             style="fill:url(#linearGradient3949);fill-opacity:1;stroke:url(#Wavy);stroke-width:95.66929626;stroke-miterlimit:4;stroke-dasharray:none"
             id="ellipse7125"
             cx="-933.68793"
             cy="-999.22656"
             rx="18.182747"
             ry="28.284271" />
        </g>
      </g>
      <g
         style="fill:url(#linearGradient3965);fill-opacity:1;stroke:url(#Wavy)"
         inkscape:transform-center-y="41.774435"
         inkscape:transform-center-x="-8.0423895"
         transform="matrix(0.99978522,-0.01429338,0.03869228,0.78722952,517.43843,-239.28887)"
         id="g3569">
        <g
           style="fill:url(#linearGradient3955);fill-opacity:1;stroke:url(#Wavy)"
           id="g3853" />
        <g
           style="opacity:1;fill:url(#linearGradient3963);fill-opacity:1;stroke:url(#Wavy);stroke-width:95.66929626;stroke-miterlimit:4;stroke-dasharray:none"
           inkscape:transform-center-y="0.000117259"
           inkscape:transform-center-x="-12.121835"
           id="g3890">
          <rect
             y="-1011.2516"
             x="-952.08234"
             height="759.6347"
             width="36.36549"
             id="rect3555"
             style="fill:url(#linearGradient3957);fill-opacity:1;stroke:url(#Wavy);stroke-width:95.66929626;stroke-miterlimit:4;stroke-dasharray:none"
             transform="matrix(0.01623387,0.99986822,-0.99986822,0.01623387,5.2140899e-7,-2.9995471e-5)" />
          <ellipse
             transform="matrix(0.01623387,0.99986822,-0.99986822,0.01623387,0,0)"
             style="fill:url(#linearGradient3959);fill-opacity:1;stroke:url(#Wavy);stroke-width:95.66929626;stroke-miterlimit:4;stroke-dasharray:none"
             id="ellipse3557"
             cx="-933.89954"
             cy="-239.49509"
             rx="18.182747"
             ry="28.284271" />
          <ellipse
             ry="28.284271"
             rx="18.182747"
             cy="-999.22656"
             cx="-933.68793"
             id="ellipse3567"
             style="fill:url(#linearGradient3961);fill-opacity:1;stroke:url(#Wavy);stroke-width:95.66929626;stroke-miterlimit:4;stroke-dasharray:none"
             transform="matrix(0.01623387,0.99986822,-0.99986822,0.01623387,0,0)" />
        </g>
      </g>
      <g
         style="fill:#008080;stroke:url(#Polkadots-largewhite)"
         transform="matrix(0.99659668,-0.03263694,0.03446276,1.0523496,101.13351,-86.887729)"
         id="g3352">
        <rect
           style="fill:#008080;stroke:url(#Polkadots-largewhite)"
           id="rect3344"
           width="1270.7528"
           height="108.2071"
           x="804.10846"
           y="-1539.0355"
           transform="matrix(0.99999107,-0.0042257,0.35850464,0.93352794,0,0)" />
        <rect
           y="-1007.6913"
           x="721.73956"
           height="108.79676"
           width="1272.7922"
           id="rect3348"
           style="fill:#008080;stroke:url(#Polkadots-largewhite)"
           transform="matrix(1,0,0.37139069,0.92847669,0,0)" />
        <rect
           style="fill:#008080;stroke:url(#Polkadots-largewhite)"
           id="rect3350"
           width="1275.8285"
           height="100.13627"
           x="578.88818"
           y="-913.47858"
           transform="matrix(0.96748805,-0.25291675,0.25903988,0.96586663,0,0)" />
      </g>
      <g
         style="fill:url(#linearGradient4263);fill-opacity:1;stroke:url(#Wavy)"
         inkscape:transform-center-y="6.3884176"
         inkscape:transform-center-x="53.266542"
         transform="matrix(2.8660934e-4,0.78764579,-0.99994749,0.03146388,-260.64801,-1760.1933)"
         id="g7127">
        <g
           style="fill:url(#linearGradient3967);fill-opacity:1;stroke:url(#Wavy)"
           id="g7129" />
        <g
           style="opacity:1;fill:url(#linearGradient3975);fill-opacity:1;stroke:url(#Wavy);stroke-width:95.66929626;stroke-miterlimit:4;stroke-dasharray:none"
           inkscape:transform-center-y="0.000117259"
           inkscape:transform-center-x="-12.121835"
           id="g7131">
          <rect
             y="-1011.2516"
             x="-952.08234"
             height="759.6347"
             width="36.36549"
             id="rect7133"
             style="fill:url(#linearGradient3969);fill-opacity:1;stroke:url(#Wavy);stroke-width:95.66929626;stroke-miterlimit:4;stroke-dasharray:none"
             transform="matrix(0.01623387,0.99986822,-0.99986822,0.01623387,5.2140899e-7,-2.9995471e-5)" />
          <ellipse
             transform="matrix(0.01623387,0.99986822,-0.99986822,0.01623387,0,0)"
             style="fill:url(#linearGradient3971);fill-opacity:1;stroke:url(#Wavy);stroke-width:95.66929626;stroke-miterlimit:4;stroke-dasharray:none"
             id="ellipse7135"
             cx="-933.89954"
             cy="-239.49509"
             rx="18.182747"
             ry="28.284271" />
          <ellipse
             ry="28.284271"
             rx="18.182747"
             cy="-999.22656"
             cx="-933.68793"
             id="ellipse7137"
             style="fill:url(#linearGradient3973);fill-opacity:1;stroke:url(#Wavy);stroke-width:95.66929626;stroke-miterlimit:4;stroke-dasharray:none"
             transform="matrix(0.01623387,0.99986822,-0.99986822,0.01623387,0,0)" />
        </g>
      </g>
    </g>
    <g
       id="g3449">
      <path
         style="fill:#cd7f44;stroke:#cd7f44;stroke-width:0.5"
         inkscape:connector-curvature="0"
         d="m -787.61921,-86.6475 c 0.843,5.487 0.774,11.063 0.03,16.569 -0.298,-2.093 -0.615,-4.187 -0.635,-6.29 0.069,-3.433 0.327,-6.866 0.605,-10.279 z"
         id="path5978" />
      <path
         style="fill:#000000;stroke:#f07821;stroke-width:0.60266614"
         inkscape:connector-curvature="0"
         d="m -257.74996,-315.47378 c 52.09326,-12.30524 106.58995,-12.93924 159.329264,-4.48504 48.492929,8.21554 96.914744,23.83424 137.001686,53.07319 22.913367,17.04099 43.159333,40.03873 49.988746,68.39296 5.154001,22.93748 12.664424,46.05334 27.206764,64.87702 9.56672,12.53304 23.13997,22.17209 38.53206,25.93875 14.64961,3.82693 30.02844,2.06956 44.61899,-1.11252 -21.23916,31.750867 -52.99002,55.178911 -86.96593,71.849862 -0.34714,3.79077 -1.90201,7.737028 -0.45441,11.48079 7.31878,21.4537094 16.98193,42.060072 28.00831,61.839573 5.86032,10.966114 12.91634,21.215054 19.13465,31.966618 C 135.49814,71.25348 111.62774,70.47604 89.14468,63.839481 67.929626,57.823667 48.041643,47.491559 30.437765,34.241341 19.590979,25.797989 8.9237884,16.817058 0.26588646,6.0775461 -1.2287256,1.7962057 -3.9431339,-1.8511298 -8.0099251,-3.9676933 -14.300554,-8.5359027 -17.541693,-15.878787 -22.659534,-21.523358 c -1.004042,-1.506666 -2.845789,-1.6501 -4.460934,-1.746527 -56.25527,-0.52673 -112.414112,-4.137906 -168.621172,-6.218309 -12.89223,-0.383296 -25.75915,-1.72242 -38.67549,-1.302964 22.80609,7.043962 46.23293,11.959307 69.68508,16.311762 42.52653,7.7249744 85.625599,12.2220692 128.810245,13.81310785 3.707602,1.26800958 7.330831,2.76262165 10.929953,4.31750025 -28.40245,4.9623543 -57.199044,7.2585119 -85.972738,8.5988419 -9.30396,0.07232 -18.68024,1.136628 -27.93598,-0.155488 -30.11282,-5.6566256 -59.78328,-13.369547 -89.27294,-21.6333052 13.62146,8.76638181 28.60615,15.0329044 43.18344,21.9804412 -25.48434,-1.638047 -50.99279,-3.3484133 -76.27464,-7.06807 -25.35295,-3.7907701 -50.69386,-8.5506273 -74.95841,-16.99398 -8.23965,-2.786728 -15.94172,-6.828208 -23.70286,-10.667191 4.16202,45.683301 -8.8616,90.983303 -26.83551,132.540749 -10.0573,23.0327 -21.74179,45.38437 -35.30298,66.53916 -1.11252,-0.47852 -2.20094,-0.95704 -3.3002,-1.4235 -13.26227,-7.56949 -22.04071,-20.72448 -29.49087,-33.66493 -12.52099,-22.88925 -20.76064,-47.86012 -27.33814,-73.021434 -7.06807,-27.661171 -11.87493,-55.896079 -14.6255,-84.310584 -0.39414,-5.02262 -1.12458,-10.057293 -0.88471,-15.104019 0.89676,-6.637765 0.98114,-13.358698 -0.0362,-19.971151 -0.33509,4.1138 -0.64606,8.251705 -0.72923,12.389611 -0.86061,-14.32658 -0.68222,-28.701373 -0.27482,-43.027953 1.75738,-23.2364 4.04269,-47.22613 14.64961,-68.35681 5.26248,-10.18867 14.30248,-20.18691 26.47754,-20.87998 9.92591,-1.0402 19.13465,3.4557 27.6009,8.02391 4.17407,-14.58935 9.12437,-29.02441 16.19244,-42.47833 15.06785,-29.19194 38.12466,-53.935 65.41579,-72.10057 27.44301,-18.38011 58.60808,-30.71066 90.65786,-38.34041 z"
         id="path5976" />
      <path
         style="fill:#fde3cb;stroke:#fde3cb;stroke-width:0.60266614"
         inkscape:connector-curvature="0"
         d="m -251.46552,-99.684708 c 12.91513,-0.418252 25.78326,0.920874 38.6755,1.302964 56.20705,2.080404 112.36589,5.692785 168.621162,6.21831 1.61394,0.09522 3.455688,0.238656 4.460935,1.746526 5.119047,5.644571 8.35898,12.987456 14.649609,17.555665 0.335082,1.15953 0.682218,2.344371 1.028149,3.528008 -9.651096,-0.119328 -19.290139,-0.07232 -28.940029,-0.227808 -43.18344,-1.591039 -86.283716,-6.086928 -128.810246,-13.813108 -23.45215,-4.35125 -46.8802,-9.266595 -69.68508,-16.310557 z"
         id="path5980" />
      <path
         style="fill:#fde3cc;stroke:#fde3cc;stroke-width:0.60266614"
         inkscape:connector-curvature="0"
         d="m -366.51997,-89.180285 c 7.76113,3.838983 15.4632,7.880463 23.70285,10.667191 24.26455,8.443353 49.60546,13.202004 74.95842,16.99398 25.28063,3.719655 50.78908,5.428817 76.27463,7.068069 -14.5785,-6.948741 -29.56198,-13.214058 -43.18344,-21.98044 29.49086,8.263758 59.16132,15.976679 89.27294,21.633304 9.25574,1.292116 18.63202,0.227808 27.93598,0.155488 28.773694,-1.339125 57.570288,-3.635283 85.972739,-8.598841 5.692784,-0.634005 11.289142,-1.961076 17.006033,-2.439593 3.599122,-0.621951 5.8723791,2.774675 8.2517051,4.867132 C 2.329789,-50.074484 12.99698,-41.093553 23.843765,-32.6502 41.447643,-19.399982 61.334421,-9.0666684 82.55068,-3.0520602 81.916675,-2.5024287 80.625765,-1.4019603 79.99176,-0.85112345 82.348184,12.423201 83.81869,25.853014 84.499703,39.318986 85.002326,82.777242 73.115339,126.58384 49.316053,163.08251 29.46423,194.06798 1.5885096,219.73192 -30.605916,237.50334 c -19.337146,10.21278 -40.074888,17.85459 -61.540651,22.14798 -28.749583,4.84303 -57.497963,9.63904 -86.283713,14.25547 -11.08544,1.94902 -22.27936,3.528 -33.55645,3.63528 -12.53305,0.012 -25.16131,0.33508 -37.55092,-1.94903 -42.08298,-5.81211 -82.27719,-24.19343 -114.26792,-52.11736 -24.16932,-20.87997 -43.31482,-47.32134 -56.3987,-76.40601 -4.30545,-10.42854 -8.21555,-21.03546 -11.31325,-31.88225 -0.62195,-2.17683 -1.20774,-4.49709 -0.44236,-6.70888 1.10047,0.46647 2.18889,0.94498 3.3002,1.4235 13.5612,-21.155992 25.24569,-43.506469 35.30298,-66.539164 17.97512,-41.5586524 30.99753,-86.859862 26.83673,-132.543161 m 291.426444,44.236901 c -4.424775,3.814876 -5.763899,9.865645 -5.369755,15.475261 5.046726,-3.121811 9.554669,-7.65386 15.606642,-8.730222 6.18215,-1.064308 12.030422,1.710367 17.854588,3.33636 -1.100469,-3.348413 -2.223838,-6.876421 -4.808071,-9.411235 -5.883227,-6.518437 -17.053041,-6.853519 -23.283404,-0.670164 M -323.36064,-3.8403476 c -4.10175,3.83898343 -5.28538,9.6752024 -4.79602,15.0919656 4.75986,-3.0856505 9.10026,-7.1632897 14.73398,-8.5867871 6.32679,-1.3873375 12.44868,1.4355507 18.38132,3.2170319 -0.89677,-3.946258 -2.4637,-7.9286759 -5.73979,-10.4875964 -6.21952,-5.6927844 -16.74327,-5.2986408 -22.57949,0.765386 M -55.815441,37.584513 c -5.919387,3.552114 -8.072111,10.822679 -8.407193,17.33991 -0.274816,8.443353 2.128617,17.329063 7.952783,23.642593 3.097704,3.288147 7.785241,5.751846 12.38961,4.53205 5.309489,-1.423498 8.526521,-6.601605 9.865645,-11.612171 2.092457,-7.952783 1.292116,-16.897554 -2.845789,-24.072897 1.124575,-4.400668 -2.666195,-7.952783 -6.470224,-9.279854 -3.994471,-1.21859 -8.550628,-2.928957 -12.484832,-0.549631 M -302.50478,77.754622 c -5.39386,2.344372 -8.15648,8.227599 -9.0882,13.752842 -1.50667,9.220796 0.57374,19.266036 6.48228,26.645076 3.21703,3.9342 8.4783,7.17534 13.70462,5.59636 5.28539,-1.55488 8.33488,-6.8041 9.67521,-11.81587 1.96107,-7.94073 0.74128,-16.384087 -2.48781,-23.822192 -0.0482,-4.436829 -2.70236,-7.928676 -6.90053,-9.220792 -3.67144,-1.038997 -7.6177,-2.785523 -11.38557,-1.135424 m 211.888985,43.649908 c -5.632518,1.14868 -11.588065,1.66215 -16.598635,4.72369 -7.59359,4.55616 -13.47802,11.3012 -20.43761,16.70711 -9.50766,7.45016 -19.7795,14.69783 -31.79908,17.2688 -9.37628,2.29616 -19.07438,1.8538 -28.63026,2.20094 -4.50794,0.17959 -9.44739,0.84855 -12.84402,4.12585 -3.68349,3.42073 -4.58026,8.6338 -5.5843,13.32254 -1.99724,11.18187 4.06558,22.35168 12.5451,29.32332 10.75156,9.08941 25.93875,11.82793 39.48789,8.635 16.12011,-3.73171 30.38763,-13.51298 41.30674,-25.73625 11.69534,-12.70059 22.386634,-26.70414 29.060558,-42.72903 2.762622,-7.23561 5.262481,-15.36678 2.95427,-23.06886 -1.172788,-3.95951 -5.597563,-6.07608 -9.460653,-4.77311 z"
         id="path5982" />
      <path
         style="fill:#e07623;stroke:#e07623;stroke-width:0.60266614"
         inkscape:connector-curvature="0"
         d="m -12.521098,-70.438151 c 4.0655856,2.116563 6.7811993,5.763899 8.2758114,10.045239 -2.379326,-2.092457 -4.6513774,-5.489083 -8.2517054,-4.867132 -5.716891,0.478517 -11.313249,1.805588 -17.006033,2.439593 -3.599122,-1.554879 -7.223556,-3.049491 -10.929953,-4.3175 9.651095,0.155487 19.290138,0.107274 28.940028,0.227807 -0.34593,-1.183636 -0.693066,-2.367272 -1.028148,-3.528007 z"
         id="path5984" />
      <path
         style="fill:#2e2e62;stroke:#2e2e62;stroke-width:0.60266614"
         inkscape:connector-curvature="0"
         d="m -74.801884,-44.880611 c 6.230363,-6.183354 17.400177,-5.848272 23.28461,0.670165 2.583027,2.534814 3.707602,6.062822 4.80807,9.411235 -5.824166,-1.625994 -11.672438,-4.400668 -17.854587,-3.33636 -6.050768,1.076362 -10.559916,5.608411 -15.606643,8.730222 -0.395349,-5.609617 0.943775,-11.660385 5.36855,-15.475262 z"
         id="path5986" />
      <path
         inkscape:transform-center-y="-71.518599"
         inkscape:transform-center-x="51.47295"
         style="fill:#2f2d63;stroke:#2f2d63;stroke-width:0.60266614"
         inkscape:connector-curvature="0"
         d="m -319.92647,-6.3257681 c 5.83622,-6.0628219 16.35996,-6.4581709 22.57829,-0.765386 3.27728,2.5589205 4.84301,6.54133842 5.73978,10.4875964 -5.93143,-1.7814812 -12.05453,-4.6043694 -18.38131,-3.21703194 -5.63253,1.42349744 -9.97412,5.50113664 -14.73399,8.58678734 -0.48816,-5.4179687 0.69547,-11.2541877 4.79723,-15.0919658 z"
         id="path5988" />
      <path
         style="fill:#231f20;stroke:#231f20;stroke-width:0.60266614"
         inkscape:connector-curvature="0"
         d="m -52.980777,38.150139 c 3.934205,-2.379326 8.490361,-0.670165 12.484832,0.549632 -2.116563,3.528007 -3.623229,8.03595 -1.064308,11.791766 1.004042,2.391379 3.719655,2.344371 5.907333,2.487806 0.561685,-1.674207 1.112522,-3.33636 1.625994,-4.998514 4.137905,7.175344 4.939451,16.120115 2.845789,24.072897 -1.339124,5.010567 -4.556156,10.188674 -9.865645,11.612172 -4.604369,1.219796 -9.291906,-1.243903 -12.38961,-4.53205 -5.824166,-6.314736 -8.227599,-15.19924 -7.952783,-23.642593 0.336288,-6.518437 2.489011,-13.789001 8.408398,-17.341116 z"
         id="path5990" />
      <path
         style="fill:#fdfdfc;stroke:#fdfdfc;stroke-width:0.60266614"
         inkscape:connector-curvature="0"
         d="m -40.540831,38.692792 c 3.802823,1.327071 7.593593,4.879185 6.470223,9.279853 -0.514677,1.662153 -1.064308,3.324307 -1.625993,4.998513 -2.188883,-0.143434 -4.903292,-0.09522 -5.907333,-2.487806 -2.560126,-3.75461 -1.053461,-8.262552 1.063103,-11.79056 z"
         id="path5992" />
      <path
         style="fill:#231f20;stroke:#231f20;stroke-width:0.60266614"
         inkscape:connector-curvature="0"
         d="m -311.19132,76.438412 c 3.76667,-1.6501 7.71413,0.09522 11.38437,1.136628 -1.04021,2.247945 -2.61919,4.448882 -2.42754,7.068069 -0.0482,3.312253 2.04545,7.510425 5.87238,7.306724 1.96107,-1.040202 2.57097,-3.312253 3.45568,-5.154001 3.22909,7.438106 4.44889,15.881458 2.48781,23.822188 -1.33912,5.01057 -4.38861,10.26099 -9.6752,11.81587 -5.22632,1.57899 -10.4876,-1.66215 -13.70463,-5.59636 -5.90733,-7.37904 -7.98894,-17.424279 -6.48228,-26.645071 0.93413,-5.526449 3.69676,-11.409676 9.08941,-13.754047 z"
         id="path5994" />
      <path
         style="fill:#fefdfc;stroke:#fefdfc;stroke-width:0.60266614"
         inkscape:connector-curvature="0"
         d="m -303.37116,77.057796 c 4.19818,1.292116 6.85232,4.783964 6.90053,9.220792 -0.88471,1.841748 -1.49461,4.113799 -3.45569,5.154001 -3.82693,0.203701 -5.91938,-3.994471 -5.87238,-7.306725 -0.19164,-2.619187 1.38734,-4.820123 2.42754,-7.068068 z"
         id="path5996" />
      <path
         style="fill:#ffffff;stroke:#e40b40;stroke-width:0.60266614"
         inkscape:connector-curvature="0"
         d="m -87.481425,122.0231 c 3.86309,-1.30296 8.287865,0.8136 9.459448,4.77191 2.308211,7.70208 -0.191648,15.83325 -2.95427,23.06886 -6.672719,16.02489 -17.364017,30.02844 -29.060563,42.72903 -10.9191,12.22207 -25.18542,22.00454 -41.30674,25.73625 -13.54914,3.19293 -28.73753,0.45441 -39.48789,-8.635 -8.47831,-6.97164 -14.54233,-18.14145 -12.5451,-29.32332 1.00405,-4.68754 1.90202,-9.90181 5.58431,-13.32254 3.39662,-3.2773 8.33487,-3.94626 12.84402,-4.12585 9.55467,-0.34714 19.25398,0.0952 28.63026,-2.20094 12.01837,-2.57097 22.29141,-9.81864 31.79907,-17.26879 6.95959,-5.40592 12.84402,-12.14975 20.43762,-16.70712 5.01177,-3.06033 10.967317,-3.57381 16.599835,-4.72249 z"
         id="path5998" />
      <g
         transform="matrix(1.361737,0,0,1.326648,-736.65493,-652.86733)"
         id="g6000">
        <path
           id="path6002"
           d="m 1226.402,28.074 c 83.501,-3.81 168.143,21.272 235.581,70.781 58.538,42.544 104.049,102.63 129.299,170.435 15.736,42.137 23.822,87.162 23.346,132.137 -0.387,82.598 -29.2,164.859 -81.021,229.241 -47.227,59.302 -113.058,103.493 -185.833,124.735 -45.501,13.434 -93.591,17.809 -140.779,13.156 -19.685,-2.014 -39.181,-5.576 -58.469,-9.922 -7.729,-1.806 -15.398,-3.899 -22.691,-7.054 -20.448,-7.699 -42.048,-11.866 -63.687,-14.496 -16.698,-1.657 -33.595,-2.887 -50.333,-0.933 -32.573,3.83 -65.116,8.017 -97.679,11.976 -9.197,0.823 -19.149,0.327 -27.106,-4.862 -5.189,-3.264 -8.453,-9.138 -8.81,-15.23 -0.843,-9.713 3.304,-18.98 8.294,-27.056 7.094,-11.44 14.218,-22.86 21.242,-34.349 8.612,-14.525 12.809,-31.233 14.654,-47.902 1.707,-20.26 0.605,-41.294 -7.302,-60.264 -18.157,-41.78 -31.055,-85.912 -37.712,-130.996 -4.475,-32.871 -5.239,-66.614 1.518,-99.247 10.696,-55.79 34.488,-109.039 68.995,-154.183 48.398,-63.697 117.939,-111.004 195.011,-132.514 27.187,-7.649 55.255,-12.193 83.482,-13.453 M 923.831,591.615 c -0.536,7.769 -0.546,15.597 -0.02,23.375 1.141,-7.728 1.141,-15.646 0.02,-23.375 z"
           inkscape:connector-curvature="0"
           style="fill:#1db4e9;stroke:#1db4e9;stroke-width:0.5" />
        <path
           id="path6004"
           d="m 923.831,591.615 c 1.121,7.729 1.121,15.647 -0.02,23.375 -0.526,-7.778 -0.516,-15.606 0.02,-23.375 z"
           inkscape:connector-curvature="0"
           style="fill:#2c9dc3;stroke:#2c9dc3;stroke-width:0.5" />
        <path
           id="path6006"
           d="m 796.674,704.326 c 11.648,-1.786 23.901,0.218 34.309,5.774 8.156,4.524 15.369,12.184 16.579,21.768 0.893,6.548 -0.873,13.325 -4.792,18.643 -5.645,7.987 -14.565,13.077 -23.802,15.825 -14.416,4.247 -30.648,2.986 -43.814,-4.455 -7.759,-4.524 -14.426,-11.995 -15.756,-21.123 -1.181,-7.451 1.528,-15.021 6.271,-20.736 7.65,-9.168 19.337,-14.208 31.005,-15.696 z"
           inkscape:connector-curvature="0"
           style="fill:#1db4e9;stroke:#1db4e9;stroke-width:0.5" />
        <path
           id="path6008"
           d="m 569.507,708.691 c 7.024,-1.201 14.535,0.198 20.458,4.237 4.981,3.195 9.257,8.711 8.701,14.922 -0.189,5.328 -4.614,9.505 -9.386,11.231 -8.156,2.907 -17.591,1.101 -24.586,-3.83 -4.504,-3.334 -8.453,-8.483 -7.898,-14.386 0.28,-6.637 6.629,-11.152 12.711,-12.174 z"
           inkscape:connector-curvature="0"
           style="fill:#1db4e9;stroke:#1db4e9;stroke-width:0.5" />
        <path
           id="path6010"
           d="m 667.673,715.388 c 13.216,-2.669 27.423,0.635 38.288,8.552 5.913,4.495 11.053,10.596 12.759,17.988 1.786,6.965 -0.387,14.823 -5.596,19.804 -6.747,6.727 -16.688,9.168 -25.975,8.91 -13.484,-0.427 -27.215,-6.29 -35.579,-17.115 -5.01,-6.32 -7.233,-15.22 -4.207,-22.899 3.284,-8.394 11.817,-13.464 20.31,-15.24 z"
           inkscape:connector-curvature="0"
           style="fill:#1db4e9;stroke:#1db4e9;stroke-width:0.5" />
      </g>
      <g
         transform="matrix(1.14192,0,0,1.14192,-77.868115,5.7321427)"
         id="g6205">
        <path
           id="path6014"
           d="m 773.25063,397.18099 c 10.904,-12.501 29.11,-16.986 44.985,-13.295 4.008,0.972 7.769,2.728 11.549,4.375 5.407,-3.175 11.37,-5.883 17.809,-5.566 12.71,-0.526 24.903,8.235 28.852,20.25 1.776,4.336 1.627,9.068 1.657,13.672 7.074,-2.728 14.376,-5.685 22.125,-5.239 10.636,-0.02 20.488,6.191 26.451,14.783 10.319,14.476 12.452,33.396 9.565,50.581 -2.639,16.837 -10.13,32.9 -21.272,45.789 -4.802,5.983 -10.825,10.775 -16.887,15.418 1.131,5.487 -2.351,10.299 -5.001,14.763 -5.318,8.652 -12.779,15.746 -20.845,21.818 -13.275,9.684 -28.118,17.909 -44.439,20.885 -8.82,1.339 -18.226,0.833 -26.223,-3.453 -10.249,-4.991 -16.867,-15.468 -19.139,-26.401 -2.788,-13.503 -0.893,-27.721 4.584,-40.322 -11.698,0.833 -22.859,5.635 -34.686,5.189 -7.213,0.06 -14.357,-2.619 -19.754,-7.392 -13.315,-11.886 -16.738,-33.545 -7.173,-48.725 8.126,-13.255 23.088,-21.173 38.258,-23.058 3.413,-0.327 6.846,-0.437 10.249,-0.923 -13.405,-14.266 -13.653,-38.574 -0.665,-53.149 z"
           inkscape:connector-curvature="0"
           style="fill:#1a1a1a;stroke:#ed9704;stroke-width:0.5" />
        <path
           id="path6016"
           d="m 762.75443,534.17968 c 23.574,-4.743 47.634,-6.916 71.684,-6.489 25.866,-0.446 51.831,1.994 76.982,8.156 17.532,3.979 34.16,10.964 50.769,17.69 36.641,15.547 72.07097,34.646 103.31397,59.471 13.375,10.656 25.856,22.512 36.512,35.926 12.462,15.617 23.425,32.573 31.363,50.968 7.272,16.659 11.846,34.656 12.065,52.893 0.06,18.137 -4.802,36.234 -14.148,51.791 -6.151,10.2 -13.88,19.466 -22.721,27.42398 -1.002,0.774 -2.014,1.528 -3.006,2.30198 -28.664,-18.84096 -55.294,-40.58996 -80.782,-63.49896 -25.85597,-23.385 -50.47197,-48.11 -74.21397,-73.639 -31.829,-34.508 -62.407,-70.186 -90.902,-107.511 -2.917,-3.75 -5.368,-7.868 -8.592,-11.36 -5.249,4.207 -9.068,9.882 -13.801,14.625 -51.434,55.204 -112.254,101.092 -177.122,139.36 -22.939,13.424 -46.453,25.876 -70.523,37.147 -0.655,-0.814 -1.28,-1.607 -1.905,-2.391 -10.477,-13.503 -11.063,-31.62 -10.834,-47.991 -0.397,-10.259 2.143,-20.3 5.288,-29.983 6.35,-19.218 14.635,-37.97 26.134,-54.698 13.374,-19.576 29.408,-37.454 48.467,-51.642 16.351,-11.965 34.15,-21.778 52.297,-30.698 16.796,-8.793 35.161,-14.131 53.675,-17.852 z"
           inkscape:connector-curvature="0"
           style="fill:#1a1a1a;stroke:#ed9704;stroke-width:0.5" />
        <path
           id="path6020"
           d="m 838.42974,587.73421 c 4.733,-4.743 8.552,-10.418 13.801,-14.625 3.225,3.492 5.675,7.61 8.592,11.36 28.495,37.325 59.074,73.004 90.902,107.511 23.743,25.529 48.35796,50.253 74.21396,73.639 25.489,22.909 52.119,44.658 80.782,63.499 0.992,-0.774 2.004,-1.528 3.006,-2.302 5.397,1.151 11.092,1.181 16.212,3.483 6.32,2.729 12.362,7.521 14.466,14.337 3.304,13.116 -4.802,28.465 -18.296,31.68 -7.66,2.173 -15.389,-0.308 -22.562,-2.917 -2.738,3.959 -4.028,8.682 -6.102,12.997 -13.097,29.963 -28.604,59.669 -51.742,83.193 -10.229,9.932 -21.56,18.891 -34.418,25.151 -18.83096,9.54499 -39.68696,14.18799 -60.54196,16.54899 -19.804,1.746 -39.766,3.344 -59.59,0.992 -23.246,-1.369 -46.443,-3.364 -69.64,-5.298 -14.089,-1.389 -28.247,-2.252 -42.207,-4.693 -18.067,-4.08799 -35.559,-10.39799 -52.456,-17.92799 -30.985,-14.446 -59.48,-35.311 -79.979,-62.894 -9.852,-12.62 -17.651,-26.709 -24.477,-41.135 -11.122,-23.723 -17.69,-49.281 -22.304,-74.978 -4.881,0.089 -10.17,1.399 -14.704,-0.982 -9.356,-5.278 -14.625,-17.244 -11.35,-27.612 1.409,-4.078 4.098,-7.848 7.818,-10.11 3.443,-2.143 7.868,-2.113 11.023,-4.802 0.625,0.784 1.25,1.578 1.905,2.391 24.07,-11.271 47.584,-23.723 70.523,-37.147 64.871,-38.267 125.691,-84.154 177.125,-139.359 m -159.184,162.289 c -6.052,7.372 -8.543,17.155 -7.858,26.58 1.558,-3.651 2.609,-7.531 4.653,-10.954 4.733,-8.086 12.491,-14.198 21.232,-17.442 17.055,-6.489 38,-1.558 49.718,12.61 4.772,5.358 6.965,12.263 8.979,19.01 0.496,-4.435 0.675,-8.949 -0.099,-13.345 -2.689,-14.625 -14.714,-26.382 -28.763,-30.479 -16.807,-5.317 -36.898,-0.068 -47.862,14.02 m 239.629,-0.496 c -7.709,7.551 -11.717,18.534 -10.795,29.279 1.746,-3.711 2.937,-7.679 5.139,-11.162 4.683,-7.531 12.045,-13.226 20.27,-16.42 17.036,-6.608 38.099,-1.905 49.946,12.233 4.733,5.397 7.411,12.204 8.85,19.179 4.217,-17.73 -8.027,-35.976 -24.417,-42.306 -16.222,-6.816 -36.541,-3.493 -48.993,9.197 m -207.909,21.372 c -4.048,0.883 -7.481,3.969 -8.91,7.848 -2.838,6.856 1.726,15.349 8.969,16.847 7.541,2.014 15.855,-4.415 15.527,-12.273 0.408,-7.958 -7.936,-14.546 -15.586,-12.422 m 235.124,0.863 c -3.681,1.3 -6.618,4.405 -7.679,8.166 -2.49,7.431 3.423,16.083 11.291,16.311 8.146,0.913 15.389,-7.531 13.255,-15.438 -1.389,-7.323 -10.011,-11.936 -16.867,-9.039 m -248.3,89.89 c 6.429,16.579 17.174,31.184 29.041,44.281 23.137,24.735 54.053,43.328 87.976,47.763 21.123,2.074 42.772,0.992 63.221,-4.971 17.293,-4.911 33.764,-13.166 47.465,-24.864 10.706,-9.525 21.163,-20.528 25.439,-34.518 -2.401,-0.079 -4.782,-0.099 -7.153,0.01 -37.365,2.49 -74.909,1.002 -112.135,-2.758 -45.233,-4.435 -90,-13.076 -133.854,-24.943 z"
           inkscape:connector-curvature="0"
           style="fill:#fccfae;stroke:#fccfae;stroke-width:0.5" />
        <path
           id="path6022"
           d="m 679.23844,750.03651 c 10.963,-14.089 31.055,-19.337 47.862,-14.019 14.049,4.098 26.074,15.855 28.763,30.479 0.774,4.395 0.595,8.91 0.099,13.345 -2.014,-6.747 -4.207,-13.652 -8.979,-19.01 -11.717,-14.168 -32.662,-19.099 -49.718,-12.61 -8.741,3.244 -16.5,9.356 -21.232,17.442 -2.044,3.423 -3.096,7.302 -4.653,10.954 -0.684,-9.426 1.806,-19.209 7.858,-26.581 z"
           inkscape:connector-curvature="0"
           style="fill:#000000;stroke:#7d4d12;stroke-width:0.5" />
        <path
           id="path6024"
           d="m 919.61804,748.52921 c 12.452,-12.69 32.771,-16.014 48.993,-9.197 16.391,6.33 28.634,24.576 24.417,42.306 -1.439,-6.975 -4.117,-13.781 -8.85,-19.179 -11.847,-14.138 -32.91,-18.841 -49.946,-12.233 -8.225,3.195 -15.587,8.89 -20.27,16.42 -2.203,3.483 -3.393,7.451 -5.139,11.162 -0.923,-10.745 3.086,-21.728 10.795,-29.279 z"
           inkscape:connector-curvature="0"
           style="fill:#000000;stroke:#7d4d12;stroke-width:0.5" />
        <path
           id="path6026"
           d="m 710.95844,770.91271 c 7.65,-2.123 15.994,4.465 15.587,12.422 0.328,7.858 -7.987,14.287 -15.527,12.273 -7.243,-1.498 -11.807,-9.991 -8.969,-16.847 1.428,-3.88 4.861,-6.965 8.909,-7.848 z"
           inkscape:connector-curvature="0"
           style="fill:#000000;stroke:#7e4d12;stroke-width:0.5" />
        <path
           id="path6028"
           d="m 946.24994,771.52891 c 6.856,-2.897 15.478,1.716 16.867,9.039 2.133,7.908 -5.11,16.351 -13.255,15.438 -7.868,-0.228 -13.781,-8.88 -11.291,-16.311 1.061,-3.761 3.998,-6.866 7.679,-8.166 z"
           inkscape:connector-curvature="0"
           style="fill:#000000;stroke:#7e4d12;stroke-width:0.5" />
        <path
           id="path6030"
           d="m 697.78244,861.66571 c 43.854,11.866 88.62,20.508 133.854,24.943 37.226,3.76 74.77,5.249 112.135,2.758 2.371,-0.109 4.752,-0.089 7.153,-0.01 -4.276,13.99 -14.734,24.993 -25.439,34.518 -13.702,11.698 -30.172,19.953 -47.465,24.864 -20.448,5.963 -42.098,7.044 -63.221,4.971 -33.922,-4.435 -64.838,-23.028 -87.976,-47.763 -11.867,-13.097 -22.612,-27.702 -29.041,-44.281 z"
           inkscape:connector-curvature="0"
           style="fill:#ffffff;stroke:#ffffff;stroke-width:0.5" />
      </g>
      <g
         transform="matrix(1.3439758,0,0,1.1729046,-712.47052,-699.68779)"
         id="g6032">
        <path
           id="path6034"
           d="m 380.083,885.278 c 52.694,-2.669 105.964,5.903 154.997,25.429 67.378,26.521 126.65,73.202 168.073,132.603 32.226,45.967 53.795,99.376 62.358,154.858 6.35,42.534 1.042,85.892 -8.513,127.533 -7.491,30.708 -17.145,60.949 -29.954,89.861 -8.146,19.972 -9.277,42.137 -6.935,63.37 2.133,16.123 6.578,32.226 15.131,46.195 7.005,11.479 14.277,22.81 21.242,34.319 4.564,7.719 8.275,16.549 7.501,25.697 -0.317,5.903 -3.443,11.519 -8.334,14.853 -7.749,5.427 -17.73,6.032 -26.868,5.288 -33.724,-4.028 -67.398,-8.473 -101.132,-12.323 -21.123,-1.707 -42.385,0.119 -63.271,3.403 -12.243,2.024 -24.417,4.614 -36.293,8.265 -9.793,2.887 -19.02,7.451 -28.991,9.753 -42.594,10.457 -86.795,15.756 -130.599,11.827 -79.602,-6.221 -156.713,-39.419 -216.273,-92.53 C 97.087,1485.023 57.043,1419.49 39.125,1348.153 28.34,1305.758 24.877,1261.467 29.432,1217.941 c 4.237,-41.314 15.537,-81.894 33.218,-119.467 36.373,-77.885 100.586,-142.436 178.59,-178.64 43.475,-20.359 90.911,-32.046 138.843,-34.556 z"
           inkscape:connector-curvature="0"
           style="fill:#b0ce5e;stroke:#b0ce5e;stroke-width:0.5" />
        <path
           id="path6036"
           d="m 827.441,1561.679 c 16.817,-2.828 35.718,1.33 47.753,13.97 6.31,6.439 9.445,16.153 7.025,24.983 -2.411,8.929 -9.703,15.736 -17.8,19.704 -14.049,6.826 -30.906,7.134 -45.451,1.657 -8.433,-3.304 -16.46,-8.711 -21.044,-16.708 -4.753,-7.868 -4.713,-18.444 0.308,-26.173 6.33,-10.012 17.819,-15.578 29.209,-17.433 z"
           inkscape:connector-curvature="0"
           style="fill:#b0ce5e;stroke:#b0ce5e;stroke-width:0.5" />
        <path
           id="path6038"
           d="m 1062.605,1565.816 c 5.298,-0.704 11.083,-0.704 15.875,2.014 3.701,2.093 6.876,5.824 6.935,10.289 0.427,5.824 -3.512,10.904 -7.927,14.258 -6.796,4.584 -15.696,6.638 -23.634,4.068 -3.929,-1.22 -7.6,-3.83 -9.376,-7.61 -1.796,-3.959 -1.101,-8.721 1.25,-12.293 3.691,-5.825 10.2,-9.476 16.877,-10.726 z"
           inkscape:connector-curvature="0"
           style="fill:#b0ce5e;stroke:#b0ce5e;stroke-width:0.5" />
        <path
           id="path6040"
           d="m 959.46,1571.878 c 9.019,-1.012 18.692,0.119 26.411,5.189 5.715,3.701 10.08,9.942 10.259,16.917 0.556,7.997 -3.741,15.448 -9.336,20.845 -10.894,10.448 -27.096,14.793 -41.85,12.075 -8.771,-1.786 -17.76,-6.965 -20.845,-15.805 -2.867,-7.451 -0.516,-15.895 4.108,-22.076 7.341,-9.872 19.247,-15.557 31.253,-17.145 z"
           inkscape:connector-curvature="0"
           style="fill:#b0ce5e;stroke:#b0ce5e;stroke-width:0.5" />
      </g>
      <flowRoot
         transform="matrix(1.2072167,0,0,1,-111.51086,-5.7142857)"
         style="font-style:normal;font-variant:normal;font-weight:normal;font-stretch:normal;font-size:118.75px;line-height:125%;font-family:'Freehand575 BT';-inkscape-font-specification:'Freehand575 BT';letter-spacing:0px;word-spacing:0px;fill:#000000;fill-opacity:1;stroke:none;stroke-width:1px;stroke-linecap:butt;stroke-linejoin:miter;stroke-opacity:1"
         id="flowRoot6138"
         xml:space="preserve"><flowRegion
           id="flowRegion6140"><rect
             style="font-style:normal;font-variant:normal;font-weight:normal;font-stretch:normal;font-size:118.75px;font-family:'Freehand575 BT';-inkscape-font-specification:'Freehand575 BT'"
             y="446.64789"
             x="-351.42859"
             height="682.85718"
             width="654.28577"
             id="rect6142" /></flowRegion><flowPara
           id="flowPara6176">Oh, yes. The world's most productive group chat. There are many</flowPara><flowPara
           id="flowPara6182">tasks we can do. </flowPara><flowPara
           id="flowPara6180" /><flowPara
           id="flowPara6152" /><flowPara
           id="flowPara6154" /><flowPara
           id="flowPara6156" /><flowPara
           id="flowPara6158" /></flowRoot>      <text
         sodipodi:linespacing="125%"
         id="text6146"
         y="-321.92352"
         x="542.85712"
         style="font-style:normal;font-variant:normal;font-weight:normal;font-stretch:normal;font-size:130px;line-height:125%;font-family:'Freehand575 BT';-inkscape-font-specification:'Freehand575 BT';letter-spacing:0px;word-spacing:0px;fill:#000000;fill-opacity:1;stroke:none;stroke-width:1px;stroke-linecap:butt;stroke-linejoin:miter;stroke-opacity:1"
         xml:space="preserve"><tspan
           style="font-size:130px"
           y="-321.92352"
           x="542.85712"
           id="tspan6148"
           sodipodi:role="line">Have you heard</tspan><tspan
           style="font-size:130px"
           id="tspan6150"
           y="-159.42352"
           x="542.85712"
           sodipodi:role="line">ZULIP. Do you what are</tspan><tspan
           id="tspan6168"
           style="font-size:130px"
           y="3.0764771"
           x="542.85712"
           sodipodi:role="line">the tasks they are conducting</tspan><tspan
           style="font-size:130px"
           id="tspan6162"
           y="165.57648"
           x="542.85712"
           sodipodi:role="line">in Google Code-In contest.</tspan></text>
      <flowRoot
         style="font-style:normal;font-weight:normal;font-size:125px;line-height:125%;font-family:sans-serif;letter-spacing:0px;word-spacing:0px;fill:#000000;fill-opacity:1;stroke:none;stroke-width:1px;stroke-linecap:butt;stroke-linejoin:miter;stroke-opacity:1"
         id="flowRoot6184"
         xml:space="preserve"><flowRegion
           id="flowRegion6186"><rect
             y="-479.06638"
             x="128.57143"
             height="240"
             width="497.14285"
             id="rect6188" /></flowRegion><flowPara
           id="flowPara6190" /></flowRoot>    </g>
  </g>
</svg>
